<svg id="78083212" viewBox="0 0 523 519" xmlns="http://www.w3.org/2000/svg" xmlns:xlink="http://www.w3.org/1999/xlink"><g transform="matrix(1,0,0,1,0,0)"><g id="78083212" opacity="1" style="mix-blend-mode:normal"><g><g><g transform="matrix(0.45746423683437076,-0.8892280202611402,0.8892280202611402,0.45746423683437076,326.9988,190.9157)"><g id="78085565" opacity="1" style="mix-blend-mode:normal"><g><g><g transform="matrix(0.8127165375422498,0.5826592740232809,-0.5826592740232809,0.8127165375422498,72.0716563160396,-0.003241975470189118)"><g id="78085566" opacity="1" style="mix-blend-mode:normal"><g><g><path id="78085566_stroke_path" d="M3,5.19306c21.33333,-5.16667 64.7,-11 67.5,7c3.5,22.5 -50.5,47.0003 -54.5,36.0003c-4,-11 72,-18.5 66.5,14c-4.4,26 -56.83333,51.83333 -82.5,61.5" fill="none" stroke="rgb(214, 214, 214)" stroke-width="3" stroke-linecap="butt" stroke-linejoin="butt" stroke-dasharray="0 0" stroke-opacity="1"></path></g></g></g></g><g transform="matrix(0.45746423683437076,0.8892280202611402,-0.8892280202611402,0.45746423683437076,12.40306217639386,93.1475472945342)"><g id="78085567" opacity="1" style="mix-blend-mode:normal"><g><g><path id="78085567_stroke_path" d="M0,0l1,13.49805h13.5" fill="none" stroke="rgb(214, 214, 214)" stroke-width="3" stroke-linecap="round" stroke-linejoin="round" stroke-dasharray="0 0" stroke-opacity="1"></path></g></g></g></g></g></g></g></g><g transform="matrix(1,0,0,1,0.0078,358)"><g id="78083210" opacity="1" style="mix-blend-mode:normal"><g><g><g transform="matrix(1,0,0,1,0,0.5)"><g id="78083207" opacity="1" style="mix-blend-mode:normal"><g><g><path id="78083207_stroke_path" d="M0,0c0.00306,38.50038 61.49696,17.50125 79.99989,0.00202" fill="none" stroke="rgb(214, 214, 214)" stroke-width="3" stroke-linecap="round" stroke-linejoin="round" stroke-dasharray="0 0" stroke-opacity="1"></path></g></g></g></g><g transform="matrix(1,0,0,1,66.4922,0)"><g id="78083209" opacity="1" style="mix-blend-mode:normal"><g><g><path id="78083209_stroke_path" d="M0,0l13.5,0.5l-0.5,13" fill="none" stroke="rgb(214, 214, 214)" stroke-width="3" stroke-linecap="round" stroke-linejoin="round" stroke-dasharray="0 0" stroke-opacity="1"></path></g></g></g></g></g></g></g></g><g transform="matrix(1,0,0,1,101.00000000000003,63)"><g id="78083211" opacity="1" style="mix-blend-mode:normal"><g><g><g transform="matrix(1,0,0,1,0,0)"><g id="78087920" opacity="1" style="mix-blend-mode:normal"><g><g><path id="78087920_fill_path" d="M27,393c-14.91169,0 -27,-12.08831 -27,-27v-339c0,-14.91169 12.08831,-27 27,-27h230c14.91169,0 27,12.08831 27,27v339c0,14.91169 -12.08831,27 -27,27z" fill-rule="nonzero" fill="rgb(250, 250, 250)" fill-opacity="1" style="mix-blend-mode:NORMAL"></path></g></g></g></g><g transform="matrix(1,0,0,1,0,0)"><g id="77983194" opacity="1" style="mix-blend-mode:normal"><g><g><path id="77983194_fill_path" d="M27,393c-14.91169,0 -27,-12.08831 -27,-27v-339c0,-14.91169 12.08831,-27 27,-27h230c14.91169,0 27,12.08831 27,27v339c0,14.91169 -12.08831,27 -27,27z" fill-rule="nonzero" fill="rgb(255, 255, 255)" fill-opacity="1" style="mix-blend-mode:NORMAL"></path></g></g></g></g><g transform="matrix(1,0,0,1,18,17)"><g id="77983176" opacity="1" style="mix-blend-mode:normal"><g><g><path id="77983176_fill_path" d="M16,89c-8.83656,0 -16,-7.16344 -16,-16v-57c0,-8.83656 7.16344,-16 16,-16h57c8.83656,0 16,7.16344 16,16v57c0,8.83656 -7.16344,16 -16,16z" fill-rule="nonzero" fill="rgb(246, 246, 246)" fill-opacity="1" style="mix-blend-mode:NORMAL"></path></g></g></g></g><g transform="matrix(1,0,0,1,22,188)"><g id="78083203" opacity="1" style="mix-blend-mode:normal"><g><g><defs><filter id="77983177_dropShadow_0" x="-100%" y="-100%" width="300%" height="300%" filterUnits="userSpaceOnUse"><feOffset id="77983177_dropShadow_0_offset" dx="0" dy="0"></feOffset><feGaussianBlur id="77983177_dropShadow_0_radius" stdDeviation="10" result="blur"></feGaussianBlur><feFlood flood-color="rgb(255 170 42)" flood-opacity="0.3" result="color"></feFlood><feComposite operator="in" in="color" in2="blur" result="shadow"></feComposite><feMerge><feMergeNode in="shadow"></feMergeNode><feMergeNode in="SourceGraphic"></feMergeNode></feMerge></filter></defs><g filter="url(#77983177_dropShadow_0)"><g transform="matrix(1,0,0,1,0,0)"><g id="77983177" opacity="1" style="mix-blend-mode:normal"><g><g><path id="77983177_fill_path" d="M16,115c-8.83656,0 -16,-7.16344 -16,-16v-83c0,-8.83656 7.16344,-16 16,-16h58.113c8.83656,0 16,7.16344 16,16v83c0,8.83656 -7.16344,16 -16,16z" fill-rule="nonzero" fill="rgb(236, 142, 0)" fill-opacity="1" style="mix-blend-mode:NORMAL"></path></g></g></g></g></g><defs><filter id="78083197_dropShadow_0" x="-100%" y="-100%" width="300%" height="300%" filterUnits="userSpaceOnUse"><feOffset id="78083197_dropShadow_0_offset" dx="0" dy="0"></feOffset><feGaussianBlur id="78083197_dropShadow_0_radius" stdDeviation="10" result="blur"></feGaussianBlur><feFlood flood-color="rgb(255 170 42)" flood-opacity="0.3" result="color"></feFlood><feComposite operator="in" in="color" in2="blur" result="shadow"></feComposite><feMerge><feMergeNode in="shadow"></feMergeNode><feMergeNode in="SourceGraphic"></feMergeNode></feMerge></filter></defs><g filter="url(#78083197_dropShadow_0)"><g transform="matrix(1,0,0,1,99.9453,0)"><g id="78083197" opacity="1" style="mix-blend-mode:normal"><g><g><path id="78083197_fill_path" d="M16,115c-8.83656,0 -16,-7.16344 -16,-16v-83c0,-8.83656 7.16344,-16 16,-16h58.113c8.83656,0 16,7.16344 16,16v83c0,8.83656 -7.16344,16 -16,16z" fill-rule="nonzero" fill="rgb(236, 142, 0)" fill-opacity="1" style="mix-blend-mode:NORMAL"></path></g></g></g></g></g><defs><filter id="78083198_dropShadow_0" x="-100%" y="-100%" width="300%" height="300%" filterUnits="userSpaceOnUse"><feOffset id="78083198_dropShadow_0_offset" dx="0" dy="0"></feOffset><feGaussianBlur id="78083198_dropShadow_0_radius" stdDeviation="10" result="blur"></feGaussianBlur><feFlood flood-color="rgb(255 170 42)" flood-opacity="0.3" result="color"></feFlood><feComposite operator="in" in="color" in2="blur" result="shadow"></feComposite><feMerge><feMergeNode in="shadow"></feMergeNode><feMergeNode in="SourceGraphic"></feMergeNode></feMerge></filter></defs><g filter="url(#78083198_dropShadow_0)"><g transform="matrix(1,0,0,1,199.88279999999997,0)"><g id="78083198" opacity="1" style="mix-blend-mode:normal"><g><g><path id="78083198_fill_path" d="M16,115c-8.83656,0 -16,-7.16344 -16,-16v-83c0,-8.83656 7.16344,-16 16,-16h58.113c8.83656,0 16,7.16344 16,16v83c0,8.83656 -7.16344,16 -16,16z" fill-rule="nonzero" fill="rgb(236, 142, 0)" fill-opacity="1" style="mix-blend-mode:NORMAL"></path></g></g></g></g></g></g></g></g></g><g transform="matrix(1,0,0,1,22,188)"><g id="78083202" opacity="1" style="mix-blend-mode:normal"><g><g><g transform="matrix(1,0,0,1,0,0)"><g id="78083199" opacity="1" style="mix-blend-mode:normal"><g><g><path id="78083199_fill_path" d="M16,115c-8.83656,0 -16,-7.16344 -16,-16v-83c0,-8.83656 7.16344,-16 16,-16h58.113c8.83656,0 16,7.16344 16,16v83c0,8.83656 -7.16344,16 -16,16z" fill-rule="nonzero" fill="rgb(255, 170, 42)" fill-opacity="1" style="mix-blend-mode:NORMAL"></path></g></g></g></g><g transform="matrix(1,0,0,1,99.9453,0)"><g id="78083200" opacity="1" style="mix-blend-mode:normal"><g><g><path id="78083200_fill_path" d="M16,115c-8.83656,0 -16,-7.16344 -16,-16v-83c0,-8.83656 7.16344,-16 16,-16h58.113c8.83656,0 16,7.16344 16,16v83c0,8.83656 -7.16344,16 -16,16z" fill-rule="nonzero" fill="rgb(255, 170, 42)" fill-opacity="1" style="mix-blend-mode:NORMAL"></path></g></g></g></g><g transform="matrix(1,0,0,1,199.88279999999997,0)"><g id="78083201" opacity="1" style="mix-blend-mode:normal"><g><g><path id="78083201_fill_path" d="M16,115c-8.83656,0 -16,-7.16344 -16,-16v-83c0,-8.83656 7.16344,-16 16,-16h58.113c8.83656,0 16,7.16344 16,16v83c0,8.83656 -7.16344,16 -16,16z" fill-rule="nonzero" fill="rgb(255, 170, 42)" fill-opacity="1" style="mix-blend-mode:NORMAL"></path></g></g></g></g></g></g></g></g><g transform="matrix(1,0,0,1,22,125)"><g id="77983181" opacity="1" style="mix-blend-mode:normal"><g><g><path id="77983181_fill_path" d="M16,39c-8.83656,0 -16,-7.16344 -16,-16v-7c0,-8.83656 7.16344,-16 16,-16h168c8.83656,0 16,7.16344 16,16v7c0,8.83656 -7.16344,16 -16,16z" fill-rule="nonzero" fill="rgb(246, 246, 246)" fill-opacity="1" style="mix-blend-mode:NORMAL"></path></g></g></g></g></g></g></g></g></g></g></g></g><animateTransform href="#78083211" attributeName="transform" type="translate" values="155.9994 196.5;155.9994 196.5;155.9994 196.5;155.9994 196.5" dur="5s" repeatCount="indefinite" calcMode="spline" keyTimes="0;0.32;0.67;1" keySplines="0.5 0.35 0.15 1;0.5 0.35 0.15 1;0.5 0.35 0.15 1" additive="sum"></animateTransform><animateTransform xlink:href="#78083211" href="#78083211" attributeName="transform" type="skewX" values="0;0;0;0" dur="5s" repeatCount="indefinite" calcMode="spline" keyTimes="0;0.32;0.67;1" keySplines="0.5 0.35 0.15 1;0.5 0.35 0.15 1;0.5 0.35 0.15 1" additive="sum"></animateTransform><animateTransform xlink:href="#78083211" href="#78083211" attributeName="transform" type="skewY" values="0;10;-10;0" dur="5s" repeatCount="indefinite" calcMode="spline" keyTimes="0;0.32;0.67;1" keySplines="0.5 0.35 0.15 1;0.5 0.35 0.15 1;0.5 0.35 0.15 1" additive="sum"></animateTransform><animateTransform xlink:href="#78083211" href="#78083211" attributeName="transform" type="translate" values="-155.9994 -196.5;-155.9994 -196.5;-155.9994 -196.5;-155.9994 -196.5" dur="5s" repeatCount="indefinite" calcMode="spline" keyTimes="0;0.32;0.67;1" keySplines="0.5 0.35 0.15 1;0.5 0.35 0.15 1;0.5 0.35 0.15 1" additive="sum"></animateTransform><animateTransform href="#78087920" attributeName="transform" type="translate" values="0 0;-14 18.7633;14 18;0 0" dur="5s" repeatCount="indefinite" calcMode="spline" keyTimes="0;0.32;0.67;1" keySplines="0.5 0.35 0.15 1;0.5 0.35 0.15 1;0.5 0.35 0.15 1" additive="sum"></animateTransform><animateTransform href="#78083203" attributeName="transform" type="translate" values="0 0;-5 5;5 5;0 0" dur="5s" repeatCount="indefinite" calcMode="spline" keyTimes="0;0.32;0.67;1" keySplines="0.5 0.35 0.15 1;0.5 0.35 0.15 1;0.5 0.35 0.15 1" additive="sum"></animateTransform></svg>