<svg id="825104110" viewBox="0 0 375 765" xmlns="http://www.w3.org/2000/svg" xmlns:xlink="http://www.w3.org/1999/xlink"><g transform="matrix(1,0,0,1,0,0)"><g id="825104110" opacity="1" style="mix-blend-mode:normal"><g><g><g transform="matrix(1,0,0,1,-27,163.66)"><g id="82578167" opacity="0" style="mix-blend-mode:normal"><g><g><path id="82578167_fill_path" d="M20.1464,4.6677c3.3458,-2.9993 11.2388,-4.3914 11.3292,-4.4073c0.0904,-0.0159 0.1676,-0.0277 0.2587,-0.0395c0.0911,-0.0118 0.1687,-0.0206 0.2599,-0.0288c0.0912,-0.0082 0.1695,-0.0135 0.2614,-0.0175c0.0919,-0.004 0.1696,-0.0055 0.2616,-0.0053c0.092,0.0002 6.9723,-0.0008 9.1292,0.4984l80.5,18c4.3431,1.0007 6.8338,4.065 6.9723,4.2354c0.1385,0.1704 0.2551,0.3301 0.3747,0.5143c0.1196,0.1842 0.2183,0.3552 0.3179,0.551c0.0996,0.1958 0.1796,0.3759 0.2577,0.5815c0.0781,0.2056 0.1386,0.3931 0.1947,0.6058c0.0561,0.2127 0.0963,0.4058 0.1297,0.6229c0.0334,0.2171 0.5961,3.8898 -1.247,5.8891l-17.5,15c-2.1569,2.0007 -4.7,3.2 -7.5,4c-2.8,0.8 -8.1569,1.5007 -12.5,0.5l-84.5,-18c-2.6542,-0.9993 -4.9326,-3.2782 -5.1019,-3.4475c-0.1693,-0.1693 -0.3177,-0.3356 -0.4657,-0.5236c-0.148,-0.188 -0.2757,-0.3708 -0.4013,-0.5745c-0.1256,-0.2037 -0.2313,-0.4001 -0.3322,-0.6173c-0.1009,-0.2172 -0.1824,-0.4243 -0.257,-0.6517c-0.0746,-0.2274 -0.1319,-0.4426 -0.1798,-0.6772c-0.0479,-0.2346 -0.0793,-0.4553 -0.0996,-0.6937c-0.0203,-0.2384 -0.3214,-3.8138 1.8376,-5.8145h-0.0001z" fill-rule="nonzero" fill="rgb(45, 54, 72)" fill-opacity="1" style="mix-blend-mode:NORMAL"></path></g></g></g></g><g transform="matrix(1,0,0,1,203,122.49)"><g id="82578168" opacity="0" style="mix-blend-mode:normal"><g><g><g transform="matrix(1,0,0,1,0,19.332)"><g id="82578169" opacity="1" style="mix-blend-mode:normal"><g><g><path id="82578169_fill_path" d="M17.1542,4.6675c3.3458,-2.9993 11.2388,-4.3914 11.3292,-4.4073c0.0904,-0.0159 0.1676,-0.0277 0.2587,-0.0395c0.0911,-0.0118 0.1687,-0.0206 0.2599,-0.0288c0.0912,-0.0082 0.1695,-0.0135 0.2614,-0.0175c0.0919,-0.004 0.1696,-0.0055 0.2616,-0.0053c0.092,0.0002 6.9723,-0.0008 9.1292,0.4984l179.3536,40.8306c4.3432,1.0007 6.6617,3.0082 8,5.5c1.3431,2.5007 0.8431,5.5007 -1,7.5l-14.5078,12.6699c-2.1568,2.0007 -4.7,3.2 -7.5,4c-2.8,0.8 -8.1568,1.5007 -12.5,0.5l-183.3536,-40.8306c-2.6542,-0.9993 -4.9326,-3.2782 -5.1019,-3.4475c-0.1693,-0.1693 -0.3177,-0.3356 -0.4657,-0.5236c-0.148,-0.188 -0.2757,-0.3708 -0.4013,-0.5745c-0.1256,-0.2037 -0.2313,-0.4001 -0.3322,-0.6173c-0.1009,-0.2172 -0.1824,-0.4243 -0.257,-0.6517c-0.0746,-0.2274 -0.1319,-0.4426 -0.1798,-0.6772c-0.0479,-0.2346 -0.0793,-0.4553 -0.0996,-0.6937c-0.0203,-0.2384 -0.3214,-3.8138 1.8376,-5.8145v0z" fill-rule="nonzero" fill="rgb(255, 255, 255)" fill-opacity="1" style="mix-blend-mode:NORMAL"></path><path id="82578169_stroke_path" d="M17.1542,4.6675c3.3458,-2.9993 11.2388,-4.3914 11.3292,-4.4073c0.0904,-0.0159 0.1676,-0.0277 0.2587,-0.0395c0.0911,-0.0118 0.1687,-0.0206 0.2599,-0.0288c0.0912,-0.0082 0.1695,-0.0135 0.2614,-0.0175c0.0919,-0.004 0.1696,-0.0055 0.2616,-0.0053c0.092,0.0002 6.9723,-0.0008 9.1292,0.4984l179.3536,40.8306c4.3432,1.0007 6.6617,3.0082 8,5.5c1.3431,2.5007 0.8431,5.5007 -1,7.5l-14.5078,12.6699c-2.1568,2.0007 -4.7,3.2 -7.5,4c-2.8,0.8 -8.1568,1.5007 -12.5,0.5l-183.3536,-40.8306c-2.6542,-0.9993 -4.9326,-3.2782 -5.1019,-3.4475c-0.1693,-0.1693 -0.3177,-0.3356 -0.4657,-0.5236c-0.148,-0.188 -0.2757,-0.3708 -0.4013,-0.5745c-0.1256,-0.2037 -0.2313,-0.4001 -0.3322,-0.6173c-0.1009,-0.2172 -0.1824,-0.4243 -0.257,-0.6517c-0.0746,-0.2274 -0.1319,-0.4426 -0.1798,-0.6772c-0.0479,-0.2346 -0.0793,-0.4553 -0.0996,-0.6937c-0.0203,-0.2384 -0.3214,-3.8138 1.8376,-5.8145v0z" fill="none" stroke="rgb(178, 205, 255)" stroke-width="1.5" stroke-linecap="butt" stroke-linejoin="butt" stroke-dasharray="0 0" stroke-opacity="1"></path></g></g></g></g><g transform="matrix(1,0,0,1,33,0)"><g id="82578170" opacity="1" style="mix-blend-mode:normal"><g><g><path id="82578170_fill_path" d="M0.5,8.5887l8,-7c0.5,-0.5 1.78433,-1.39885 2.5,-1.5c1,-0.19957 2.33333,0 3,0l42,10c0.83333,0.16667 2.3,0.5 2.5,1c0.1,0.5 0,1 -0.5,1.5l-8.5,7.5c-0.5,0.5 -1.5,0.9 -2,1c-0.6,0.2 -2,0.2 -2.5,0l-43.5,-10c-0.5,-0.16667 -1.5,-0.6 -1.5,-1c0,-0.5 0,-1 0.5,-1.5z" fill-rule="nonzero" fill="rgb(178, 205, 255)" fill-opacity="1" style="mix-blend-mode:NORMAL"></path></g></g></g></g></g></g></g></g><g transform="matrix(1,0,0,1,274,596.66)"><g id="82578171" opacity="0" style="mix-blend-mode:normal"><g><g><path id="82578171_stroke_path" d="M20.1464,4.6677c3.3458,-2.9993 11.2388,-4.3914 11.3292,-4.4073c0.0904,-0.0159 0.1676,-0.0277 0.2587,-0.0395c0.0911,-0.0118 0.1687,-0.0206 0.2599,-0.0288c0.0912,-0.0082 0.1695,-0.0135 0.2614,-0.0175c0.0919,-0.004 0.1696,-0.0055 0.2616,-0.0053c0.092,0.0002 6.9723,-0.0008 9.1292,0.4984l80.5,18c4.3431,1.0007 6.8338,4.065 6.9723,4.2354c0.1385,0.1704 0.2551,0.3301 0.3747,0.5143c0.1196,0.1842 0.2183,0.3552 0.3179,0.551c0.0996,0.1958 0.1796,0.3759 0.2577,0.5815c0.0781,0.2056 0.1386,0.3931 0.1947,0.6058c0.0561,0.2127 0.0963,0.4058 0.1297,0.6229c0.0334,0.2171 0.5961,3.8898 -1.247,5.8891l-17.5,15c-2.1569,2.0007 -4.7,3.2 -7.5,4c-2.8,0.8 -8.1569,1.5007 -12.5,0.5l-84.5,-18c-2.6542,-0.9993 -4.9326,-3.2782 -5.1019,-3.4475c-0.1693,-0.1693 -0.3177,-0.3356 -0.4657,-0.5236c-0.148,-0.188 -0.2757,-0.3708 -0.4013,-0.5745c-0.1256,-0.2037 -0.2313,-0.4001 -0.3322,-0.6173c-0.1009,-0.2172 -0.1824,-0.4243 -0.257,-0.6517c-0.0746,-0.2274 -0.1319,-0.4426 -0.1798,-0.6772c-0.0479,-0.2346 -0.0793,-0.4553 -0.0996,-0.6937c-0.0203,-0.2384 -0.3214,-3.8138 1.8376,-5.8145h-0.0001z" fill="none" stroke="rgb(0, 0, 0)" stroke-width="1.5" stroke-linecap="butt" stroke-linejoin="butt" stroke-dasharray="0 0" stroke-opacity="1"></path></g></g></g></g><g transform="matrix(1,0,0,1,-100,710.83)"><g id="82578172" opacity="0" style="mix-blend-mode:normal"><g><g><path id="82578172_fill_path" d="M96.2916,4.6675c3.3458,-2.9993 11.2388,-4.3914 11.3292,-4.4073c0.0904,-0.0159 0.1676,-0.0277 0.2587,-0.0395c0.0911,-0.0118 0.1687,-0.0206 0.2599,-0.0288c0.0912,-0.0082 0.1695,-0.0135 0.2614,-0.0175c0.0919,-0.004 0.1696,-0.0055 0.2616,-0.0053c0.092,0.0002 6.9723,-0.0008 9.1292,0.4984l206.854,46.3325c4.3431,1.0007 6.6617,3.0082 8,5.5c1.3431,2.5007 0.8431,5.5007 -1,7.5l-93.6455,81.8325c-2.1568,2.0007 -4.7,3.2 -7.5,4c-2.8,0.8 -8.1568,1.5007 -12.5,0.5l-210.8536,-46.3325c-2.6542,-0.9993 -4.9326,-3.278 -5.1019,-3.4473c-0.1693,-0.1693 -0.3178,-0.3356 -0.4658,-0.5236c-0.148,-0.188 -0.2757,-0.3708 -0.4013,-0.5745c-0.1256,-0.2037 -0.2311,-0.4002 -0.3321,-0.6174c-0.101,-0.2172 -0.1825,-0.4243 -0.2571,-0.6517c-0.0746,-0.2274 -0.1319,-0.4425 -0.1798,-0.6771c-0.0479,-0.2346 -0.0793,-0.4553 -0.0996,-0.6937c-0.0203,-0.2384 -0.3214,-3.814 1.8376,-5.8147v0z" fill-rule="nonzero" fill="rgb(178, 205, 255)" fill-opacity="1" style="mix-blend-mode:NORMAL"></path></g></g></g></g></g></g></g></g><animateTransform href="#82578167" attributeName="transform" type="translate" values="0 0;0 0;0 -51.6619;0 -51.6619;0 0;0 0" dur="7s" repeatCount="indefinite" calcMode="spline" keyTimes="0;0.05;0.18;0.78;0.93;1" keySplines="0.5 0.35 0.15 1;0.5 0.35 0.15 1;0.5 0.35 0.15 1;0.5 0.35 0.15 1;0.5 0.35 0.15 1" additive="sum"></animateTransform><animate href="#82578167" attributeName="opacity" values="0;0;1;1;0;0" dur="7s" repeatCount="indefinite" calcMode="spline" keyTimes="0;0.05;0.18;0.78;0.93;1" keySplines="0.5 0.35 0.15 1;0.5 0.35 0.15 1;0.5 0.35 0.15 1;0.5 0.35 0.15 1;0.5 0.35 0.15 1"></animate><animateTransform href="#82578168" attributeName="transform" type="translate" values="0 0;0 0;0 -91.4942;0 -91.4942;0 0;0 0" dur="7s" repeatCount="indefinite" calcMode="spline" keyTimes="0;0;0.12;0.75;0.87;1" keySplines="0.5 0.35 0.15 1;0.5 0.35 0.15 1;0.5 0.35 0.15 1;0.5 0.35 0.15 1;0.5 0.35 0.15 1" additive="sum"></animateTransform><animate href="#82578168" attributeName="opacity" values="0;0;1;1;0;0" dur="7s" repeatCount="indefinite" calcMode="spline" keyTimes="0;0;0.12;0.75;0.87;1" keySplines="0.5 0.35 0.15 1;0.5 0.35 0.15 1;0.5 0.35 0.15 1;0.5 0.35 0.15 1;0.5 0.35 0.15 1"></animate><animateTransform href="#82578171" attributeName="transform" type="translate" values="0 0;0 0;0 -51.661899999999946;0 -51.661899999999946;0 0;0 0" dur="7s" repeatCount="indefinite" calcMode="spline" keyTimes="0;0.11;0.24;0.86;1;1" keySplines="0.5 0.35 0.15 1;0.5 0.35 0.15 1;0.5 0.35 0.15 1;0.5 0.35 0.15 1;0.5 0.35 0.15 1" additive="sum"></animateTransform><animate href="#82578171" attributeName="opacity" values="0;0;1;1;0;0" dur="7s" repeatCount="indefinite" calcMode="spline" keyTimes="0;0.11;0.24;0.86;1;1" keySplines="0.5 0.35 0.15 1;0.5 0.35 0.15 1;0.5 0.35 0.15 1;0.5 0.35 0.15 1;0.5 0.35 0.15 1"></animate><animateTransform href="#82578172" attributeName="transform" type="translate" values="0 0;0 0;0 -146.82669999999996;0 -146.82669999999996;0 0;0 0" dur="7s" repeatCount="indefinite" calcMode="spline" keyTimes="0;0.07;0.17;0.83;0.94;1" keySplines="0.5 0.35 0.15 1;0.5 0.35 0.15 1;0.5 0.35 0.15 1;0.5 0.35 0.15 1;0.5 0.35 0.15 1" additive="sum"></animateTransform><animate href="#82578172" attributeName="opacity" values="0;0;1;1;0;0" dur="7s" repeatCount="indefinite" calcMode="spline" keyTimes="0;0.07;0.17;0.83;0.94;1" keySplines="0.5 0.35 0.15 1;0.5 0.35 0.15 1;0.5 0.35 0.15 1;0.5 0.35 0.15 1;0.5 0.35 0.15 1"></animate></svg>