<svg id="76954507" viewBox="0 0 20 20" xmlns="http://www.w3.org/2000/svg" xmlns:xlink="http://www.w3.org/1999/xlink"><g transform="matrix(1,0,0,1,0,0)"><g id="76954507" opacity="1" style="mix-blend-mode:normal"><g><g><g transform="matrix(1,0,0,1,0,0)"><g id="76954506" opacity="1" style="mix-blend-mode:normal"><g><g><path id="76954506_fill_path" d="M 10 0 C 10 0, 8.722 2.752, 8.722 2.752 C 8.722 2.752, 6.58 0.6029999999999998, 6.58 0.6029999999999998 C 6.58 0.6029999999999998, 6.32 3.6260000000000003, 6.32 3.6260000000000003 C 6.32 3.6260000000000003, 3.572 2.34, 3.572 2.34 C 3.572 2.34, 4.362 5.269, 4.362 5.269 C 4.362 5.269, 1.3399999999999999 5, 1.3399999999999999 5 C 1.3399999999999999 5, 3.0839999999999996 7.4830000000000005, 3.0839999999999996 7.4830000000000005 C 3.0839999999999996 7.4830000000000005, 0.15199999999999925 8.264, 0.15199999999999925 8.264 C 0.15199999999999925 8.264, 2.6399999999999997 10, 2.6399999999999997 10 C 2.6399999999999997 10, 0.15199999999999925 11.736, 0.15199999999999925 11.736 C 0.15199999999999925 11.736, 3.0839999999999996 12.517, 3.0839999999999996 12.517 C 3.0839999999999996 12.517, 1.3399999999999999 15, 1.3399999999999999 15 C 1.3399999999999999 15, 4.362 14.731, 4.362 14.731 C 4.362 14.731, 3.572 17.66, 3.572 17.66 C 3.572 17.66, 6.32 16.374, 6.32 16.374 C 6.32 16.374, 6.58 19.397, 6.58 19.397 C 6.58 19.397, 8.722 17.248, 8.722 17.248 C 8.722 17.248, 10 20, 10 20 C 10 20, 11.278 17.248, 11.278 17.248 C 11.278 17.248, 13.42 19.397, 13.42 19.397 C 13.42 19.397, 13.68 16.374, 13.68 16.374 C 13.68 16.374, 16.428 17.66, 16.428 17.66 C 16.428 17.66, 15.638 14.731, 15.638 14.731 C 15.638 14.731, 18.66 15, 18.66 15 C 18.66 15, 16.916 12.517, 16.916 12.517 C 16.916 12.517, 19.848 11.736, 19.848 11.736 C 19.848 11.736, 17.36 10, 17.36 10 C 17.36 10, 19.848 8.264, 19.848 8.264 C 19.848 8.264, 16.916 7.4830000000000005, 16.916 7.4830000000000005 C 16.916 7.4830000000000005, 18.66 5, 18.66 5 C 18.66 5, 15.638 5.269, 15.638 5.269 C 15.638 5.269, 16.428 2.34, 16.428 2.34 C 16.428 2.34, 13.68 3.6260000000000003, 13.68 3.6260000000000003 C 13.68 3.6260000000000003, 13.42 0.6029999999999998, 13.42 0.6029999999999998 C 13.42 0.6029999999999998, 11.278 2.752, 11.278 2.752 C 11.278 2.752, 10 0, 10 0 Z" fill-rule="nonzero" fill="rgb(218, 28, 56)" fill-opacity="1" style="mix-blend-mode:NORMAL"></path></g></g></g></g></g></g></g></g><animateTransform href="#76954506" attributeName="transform" type="rotate" values="0 10 10;-95 10 10;-95 10 10" dur="1.4s" repeatCount="indefinite" calcMode="spline" keyTimes="0;0.76;1" keySplines="0.5 0.35 0.15 1;0.5 0.35 0.15 1" additive="sum"></animateTransform><animateTransform href="#76954506" attributeName="transform" type="translate" values="10 10;10 10;10 10;10 10" dur="1.4s" repeatCount="indefinite" calcMode="spline" keyTimes="0;0.57;0.89;1" keySplines="0.5 0.35 0.15 1;0.5 0.35 0.15 1;0.5 0.35 0.15 1" additive="sum"></animateTransform><animateTransform href="#76954506" attributeName="transform" type="scale" values="0 0;1.06 1.06;1 1;1 1" dur="1.4s" repeatCount="indefinite" calcMode="spline" keyTimes="0;0.57;0.89;1" keySplines="0.5 0.35 0.15 1;0.5 0.35 0.15 1;0.5 0.35 0.15 1" additive="sum"></animateTransform><animateTransform href="#76954506" attributeName="transform" type="translate" values="-10 -10;-10 -10;-10 -10;-10 -10" dur="1.4s" repeatCount="indefinite" calcMode="spline" keyTimes="0;0.57;0.89;1" keySplines="0.5 0.35 0.15 1;0.5 0.35 0.15 1;0.5 0.35 0.15 1" additive="sum"></animateTransform></svg>