<svg width="1000" height="905" viewBox="0 0 1000 905" fill="none" xmlns="http://www.w3.org/2000/svg">
<path d="M430.942 90.7743C323.385 182.719 202.759 261.734 110.356 369.436C103.923 376.935 97.8575 384.942 90.9956 392.063C87.3459 395.851 99.6697 386.094 104.208 383.435C270.07 286.249 482.692 236.448 667.558 189.821C699.684 181.718 731.607 172.945 763.55 164.157C775.261 160.934 788.628 155.196 800.863 154.308C804.458 154.047 799.2 161.496 797.161 164.469C787.303 178.846 774.521 191.689 762.564 204.217C743.752 223.927 724.038 242.305 703.079 259.726C574.238 366.825 423.651 440.119 290.808 541.138C275.771 552.573 262.608 566.102 248.404 578.501C231.358 593.381 129.156 693.31 112.544 708.678C111.849 709.321 189.922 628.364 193.695 624.992C215.853 605.192 238.028 585.523 261.153 566.832C419.396 438.927 596.039 374.279 791.996 334.188C816.103 329.256 839.76 318.393 862.702 309.592C877.499 303.915 891.663 298.682 907.04 295.366C916.903 293.24 888.589 303.559 879.155 307.136C706.158 372.729 517.724 447.52 369.361 559.41C361.423 565.396 353.487 570.845 345.159 576.231C343.052 577.593 340.086 581.311 337.801 582.159C335.671 582.949 340.592 578.537 342.298 577.037C344.144 575.415 345.871 573.583 348.014 572.38C365.895 562.343 400.696 548.672 415.286 542.989C546.474 491.889 684.085 441.042 826.014 430.958C834.783 430.335 844.501 428.025 853.26 428.789C853.691 428.826 857.312 428.479 857.146 429.115C856.258 432.526 850.953 432.577 847.599 433.661C704.101 480.01 547.874 494.507 423.249 587.201C419.462 590.017 416.298 593.752 412.364 596.329C403.24 602.306 394.001 608.019 384.997 614.195C364.825 628.032 345.247 643.015 326.215 658.392C319.289 663.987 325.711 660.051 329.976 657.88C449.177 597.202 576.893 580.988 706.196 562.487C708.65 562.136 713.624 559.922 715.971 560.425C717.433 560.739 713.232 561.627 711.842 562.177C552.666 625.141 404.315 711.633 245.546 775.293C223.005 784.331 200.137 793.563 178.85 805.315C173.738 808.136 167.697 811.047 163.309 814.864" stroke="white" stroke-width="180" stroke-linecap="round" stroke-linejoin="round"/>
</svg>
