<svg id="843110673" viewBox="0 0 23 16" xmlns="http://www.w3.org/2000/svg" xmlns:xlink="http://www.w3.org/1999/xlink"><g transform="matrix(1,0,0,1,0,0)"><g id="843110673" opacity="1" style="mix-blend-mode:normal"><g><g><g transform="matrix(6.123233995736766e-17,-1,1,6.123233995736766e-17,1.5,14.5)"><g id="844142427" opacity="1" style="mix-blend-mode:normal"><g><g><path id="844142427_fill_path" d="M7.5,0.92857c0,-0.51284 -0.44772,-0.92857 -1,-0.92857c-0.55228,0 -1,0.41574 -1,0.92857v8.69988l-3.86639,-4.31803c-0.33375,-0.37273 -0.91996,-0.4159 -1.30933,-0.09641c-0.38937,0.31949 -0.43447,0.88064 -0.10072,1.25337l5.37061,5.99792c0.15959,0.3159 0.5052,0.5347 0.90583,0.5347c0.40063,0 0.74624,-0.2188 0.90583,-0.5347l5.37057,-5.99792c0.3338,-0.37273 0.2887,-0.93388 -0.1007,-1.25337c-0.3894,-0.31949 -0.9756,-0.27632 -1.3093,0.09641l-3.8664,4.31803z" fill-rule="evenodd" fill="rgb(12, 12, 12)" fill-opacity="1" style="mix-blend-mode:NORMAL"></path></g></g></g></g></g></g></g></g></svg>