<svg width="14" height="13" viewBox="0 0 14 13" fill="none" xmlns="http://www.w3.org/2000/svg">
<path class="arrow" fill-rule="evenodd" clip-rule="evenodd" d="M1.42857 5.5C0.915736 5.5 0.5 5.94772 0.5 6.5C0.5 7.05228 0.915736 7.5 1.42857 7.5L10.1284 7.5L5.81042 11.3664C5.43769 11.7001 5.39452 12.2863 5.71401 12.6757C6.0335 13.0651 6.59465 13.1102 6.96738 12.7764L12.9653 7.40583C13.2812 7.24624 13.5 6.90063 13.5 6.5C13.5 6.09937 13.2812 5.75376 12.9653 5.59417L6.96738 0.223564C6.59465 -0.110185 6.0335 -0.0650911 5.71401 0.324282C5.39452 0.713655 5.43769 1.29986 5.81042 1.63361L10.1284 5.5L1.42857 5.5Z" fill="var(--text-primary)"/>
</svg>
