<svg width="24" height="24" viewBox="0 0 24 24" fill="none" xmlns="http://www.w3.org/2000/svg">
<path fill-rule="evenodd" clip-rule="evenodd" d="M5.5 6.75C5.5 6.05964 6.05964 5.5 6.75 5.5H17.25C17.9404 5.5 18.5 6.05964 18.5 6.75V14.25C18.5 14.9404 17.9404 15.5 17.25 15.5H14.625C14.4087 15.5 14.203 15.5934 14.0606 15.7561L12 18.1111L9.93943 15.7561C9.79702 15.5934 9.59127 15.5 9.375 15.5H6.75C6.05964 15.5 5.5 14.9404 5.5 14.25V6.75ZM6.75 4C5.23122 4 4 5.23122 4 6.75V14.25C4 15.7688 5.23122 17 6.75 17H9.03467L11.4356 19.7439C11.578 19.9066 11.7837 20 12 20C12.2163 20 12.422 19.9066 12.5644 19.7439L14.9653 17H17.25C18.7688 17 20 15.7688 20 14.25V6.75C20 5.23122 18.7688 4 17.25 4H6.75ZM9 10C8.44769 10 8 10.4478 8 11C8 11.5522 8.44769 12 9 12C9.55231 12 10 11.5522 10 11C10 10.4478 9.55231 10 9 10ZM11 11C11 10.4478 11.4478 10 12 10C12.5522 10 13 10.4478 13 11C13 11.5522 12.5522 12 12 12C11.4478 12 11 11.5522 11 11ZM15 10C14.4478 10 14 10.4478 14 11C14 11.5522 14.4478 12 15 12C15.5522 12 16 11.5522 16 11C16 10.4478 15.5522 10 15 10Z" fill="black"/>
</svg>
