<svg width="24" height="24" viewBox="0 0 24 24" fill="none" xmlns="http://www.w3.org/2000/svg">
<path fill-rule="evenodd" clip-rule="evenodd" d="M12.3793 4.10298C12.1451 3.96567 11.8549 3.96567 11.6207 4.10298L4.37071 8.35298C4.14108 8.48759 4 8.73382 4 9C4 9.26618 4.14108 9.51241 4.37071 9.64702L8.12571 11.8482L4.33398 14.376C4.11893 14.5194 3.99285 14.7634 4.00031 15.0218C4.00778 15.2801 4.14774 15.5164 4.37071 15.6471L11.6207 19.8971C11.8549 20.0344 12.1451 20.0344 12.3793 19.8971L19.6293 15.6471C19.8532 15.5159 19.9933 15.2782 19.9998 15.0188C20.0062 14.7594 19.8781 14.515 19.6611 14.3728L15.8397 11.8685L19.6293 9.64702C19.8589 9.51241 20 9.26618 20 9C20 8.73382 19.8589 8.48759 19.6293 8.35298L12.3793 4.10298ZM14.3952 12.7153L12.3793 13.897C12.1451 14.0343 11.8549 14.0343 11.6207 13.897L9.56462 12.6917L6.16335 14.9592L12 18.3807L17.8275 14.9646L14.3952 12.7153ZM12 12.3806L6.23304 9L12 5.61937L17.767 9L12 12.3806Z" fill="black"/>
</svg>
