<svg width="24" height="24" viewBox="0 0 24 24" fill="none" xmlns="http://www.w3.org/2000/svg">
<path fill-rule="evenodd" clip-rule="evenodd" d="M12.4258 4.13259C12.1694 3.9558 11.8305 3.9558 11.5742 4.13259L4.3242 9.1326C4.12121 9.2726 4 9.50343 4 9.75001V17.25C4 18.7688 5.23124 20 6.75 20H9.74217C9.74478 20 9.74739 20 9.75 20H14.25C14.2526 20 14.2552 20 14.2578 20H17.25C18.7688 20 20 18.7688 20 17.25V9.75001C20 9.50343 19.8788 9.2726 19.6758 9.1326L12.4258 4.13259ZM15 18.5H17.25C17.9403 18.5 18.5 17.9403 18.5 17.25V10.1438L12 5.66107L5.5 10.1438V17.25C5.5 17.9403 6.05964 18.5 6.75 18.5H9V15.75C9 14.2312 10.2313 13 11.75 13H12.25C13.7688 13 15 14.2312 15 15.75V18.5ZM13.5 18.5H10.5V15.75C10.5 15.0596 11.0597 14.5 11.75 14.5H12.25C12.9404 14.5 13.5 15.0596 13.5 15.75V18.5Z" fill="black"/>
</svg>
