<svg width="24" height="24" viewBox="0 0 24 24" fill="none" xmlns="http://www.w3.org/2000/svg">
<path fill-rule="evenodd" clip-rule="evenodd" d="M6.5 11C6.5 7.92863 9.08594 5.5 12 5.5C14.914 5.5 17.5 7.92863 17.5 11C17.5 11.8098 17.1807 12.688 16.6331 13.5861C16.089 14.4785 15.3516 15.3377 14.5947 16.0947C13.8402 16.8491 13.0829 17.4855 12.5128 17.934C12.3163 18.0886 12.1426 18.2204 12 18.3263C11.8573 18.2204 11.6837 18.0886 11.4872 17.934C10.9171 17.4855 10.1598 16.8491 9.40533 16.0947C8.64836 15.3377 7.91103 14.4785 7.36691 13.5861C6.81929 12.688 6.5 11.8098 6.5 11ZM11.5779 19.87C11.5781 19.8701 11.5783 19.8702 12 19.25C12.4217 19.8702 12.4224 19.8698 12.4225 19.8696C12.168 20.0427 11.8325 20.043 11.5779 19.87ZM11.5779 19.87L12 19.25L12.4225 19.8696L12.4239 19.8687L12.4284 19.8656L12.444 19.8549C12.4573 19.8457 12.4764 19.8325 12.5008 19.8153C12.5497 19.781 12.6202 19.7311 12.7091 19.6666C12.8868 19.5376 13.1388 19.3501 13.4403 19.1129C14.0421 18.6395 14.8473 17.9634 15.6553 17.1553C16.4609 16.3498 17.286 15.3965 17.9138 14.367C18.538 13.3432 19 12.1902 19 11C19 7.07137 15.7134 4 12 4C8.28664 4 5 7.07137 5 11C5 12.1902 5.46196 13.3432 6.08622 14.367C6.71397 15.3965 7.53914 16.3498 8.34467 17.1553C9.15274 17.9634 9.95791 18.6395 10.5597 19.1129C10.8612 19.3501 11.1132 19.5376 11.2909 19.6666C11.3798 19.7311 11.4503 19.781 11.4992 19.8153C11.5236 19.8325 11.5427 19.8457 11.556 19.8549L11.5716 19.8656L11.5761 19.8687L11.5779 19.87ZM10.5 11C10.5 10.1716 11.1716 9.5 12 9.5C12.8284 9.5 13.5 10.1716 13.5 11C13.5 11.8284 12.8284 12.5 12 12.5C11.1716 12.5 10.5 11.8284 10.5 11ZM12 8C10.3431 8 9 9.34315 9 11C9 12.6569 10.3431 14 12 14C13.6569 14 15 12.6569 15 11C15 9.34315 13.6569 8 12 8Z" fill="black"/>
</svg>
