<svg width="40" height="40" viewBox="0 0 40 40" fill="none" xmlns="http://www.w3.org/2000/svg">
<path fill-rule="evenodd" clip-rule="evenodd" d="M21.1155 7.35895C20.9037 6.93547 20.4709 6.66797 19.9974 6.66797C19.524 6.66797 19.0911 6.93547 18.8794 7.35895L6.79606 31.5256C6.55687 32.004 6.64854 32.5816 7.0241 32.9624C7.39965 33.3432 7.97588 33.4428 8.45753 33.2103L19.9974 27.6393L31.5373 33.2103C32.019 33.4428 32.5952 33.3432 32.9708 32.9624C33.3463 32.5816 33.438 32.004 33.1988 31.5256L21.1155 7.35895ZM18.75 25.4655L10.6712 29.3656L19.9974 10.7131L29.3237 29.3656L21.25 25.468V21.25C21.25 20.5596 20.6904 20 20 20C19.3096 20 18.75 20.5596 18.75 21.25V25.4655Z" fill="black"/>
</svg>
