<svg width="24" height="24" viewBox="0 0 24 24" fill="none" xmlns="http://www.w3.org/2000/svg">
<path fill-rule="evenodd" clip-rule="evenodd" d="M5.5 8.75C5.5 6.95507 6.95507 5.5 8.75 5.5H15.25C17.0449 5.5 18.5 6.95508 18.5 8.75V15.25C18.5 17.0449 17.0449 18.5 15.25 18.5H8.75C6.95508 18.5 5.5 17.0449 5.5 15.25V8.75ZM8.75 4C6.12665 4 4 6.12665 4 8.75V15.25C4 17.8733 6.12664 20 8.75 20H15.25C17.8733 20 20 17.8733 20 15.25V8.75C20 6.12664 17.8733 4 15.25 4H8.75ZM7.41475 12.0793C7.78417 11.8946 8.23315 12.0434 8.41938 12.4116L8.42486 12.4219C8.43083 12.4329 8.44148 12.4522 8.4569 12.4785C8.48779 12.5313 8.5375 12.6117 8.60678 12.7107C8.74597 12.9095 8.96025 13.1776 9.25467 13.4452C9.83855 13.976 10.7286 14.5002 12.0002 14.5002C13.2718 14.5002 14.1618 13.976 14.7457 13.4452C15.0401 13.1776 15.2544 12.9095 15.3936 12.7107C15.4628 12.6117 15.5125 12.5313 15.5434 12.4785C15.5588 12.4522 15.5695 12.4329 15.5755 12.4219L15.5809 12.4117L15.5804 12.4126C15.7663 12.0437 16.2158 11.8945 16.5856 12.0793C16.9561 12.2646 17.1062 12.7151 16.921 13.0856L16.2502 12.7502C16.921 13.0856 16.9205 13.0866 16.9203 13.0869L16.9195 13.0886L16.9175 13.0925L16.9121 13.103C16.9078 13.1112 16.9022 13.1218 16.8953 13.1346C16.8815 13.1602 16.8624 13.1946 16.8378 13.2366C16.7886 13.3206 16.7172 13.4355 16.6224 13.5709C16.4335 13.8408 16.1478 14.1978 15.7547 14.5551C14.9635 15.2743 13.7286 16.0002 12.0002 16.0002C10.2718 16.0002 9.03678 15.2743 8.24566 14.5551C7.85258 14.1978 7.56686 13.8408 7.37793 13.5709C7.28314 13.4355 7.21176 13.3206 7.16257 13.2366C7.13795 13.1946 7.11881 13.1602 7.10501 13.1346C7.0981 13.1218 7.09252 13.1112 7.08825 13.103L7.08283 13.0925L7.08084 13.0886L7.08003 13.0869L7.07934 13.0856L7.74673 12.7519L7.16294 13.0436C7.08057 13.0848 7.07928 13.0854 7.07934 13.0856L7.07934 13.0856C6.8941 12.7151 7.04427 12.2646 7.41475 12.0793ZM14 11C14.5523 11 15 10.5523 15 10C15 9.44771 14.5523 9 14 9C13.4477 9 13 9.44771 13 10C13 10.5523 13.4477 11 14 11ZM11 10C11 10.5523 10.5523 11 10 11C9.44771 11 9 10.5523 9 10C9 9.44771 9.44771 9 10 9C10.5523 9 11 9.44771 11 10Z" fill="black"/>
</svg>
